<?xml version="1.0" encoding="utf-8"?>
<!-- Generator: Adobe Illustrator 25.3.1, SVG Export Plug-In . SVG Version: 6.00 Build 0)  -->
<svg version="1.1" id="Layer_1" xmlns="http://www.w3.org/2000/svg" xmlns:xlink="http://www.w3.org/1999/xlink" x="0px" y="0px"
	 viewBox="0 0 850.39 850.39" style="enable-background:new 0 0 850.39 850.39;" xml:space="preserve">
<style type="text/css">
	.st0{fill:none;stroke:#231F20;stroke-width:0.9407;strokeLinecap:round;strokeLinejoin:round;stroke-miterlimit:10;}
	.st1{fill:#045589;}
	.st2{clip-path:url(#SVGID_2_);fill:url(#SVGID_3_);}
	.st3{fill:#FFFFFF;}
	.st4{fill:#8DD6ED;}
	.st5{fill:#26C4F4;}
	.st6{clip-path:url(#SVGID_5_);fill:url(#SVGID_6_);}
	.st7{fill:#2E3690;}
	.st8{fill:#5ECBF5;}
	.st9{clip-path:url(#SVGID_8_);fill:url(#SVGID_9_);}
	.st10{fill:#29AAE1;}
	.st11{clip-path:url(#SVGID_11_);fill:url(#SVGID_12_);}
	.st12{clip-path:url(#SVGID_14_);fill:url(#SVGID_15_);}
</style>
<g>
	<polygon class="st0" points="484.58,849.96 484.58,849.96 484.57,849.96 	"/>
	<path class="st1" d="M821.14,424.52c0-218.67-177.27-395.94-395.95-395.94c-218.67,0-395.94,177.27-395.94,395.94
		s177.27,395.95,395.94,395.95c50.05,0,97.91-9.31,141.99-26.25l31.87,26.25h206.58L692.65,716.47
		C771.62,644.08,821.14,540.09,821.14,424.52"/>
	<g>
		<defs>
			<path id="SVGID_1_" d="M60.41,425.21c0,26.35,2.87,52.01,8.19,76.77c26.69,14.33,57.31,27.56,82.63,29.81
				c35.23,3.13,85.33,7.3,125.85-21.89c40.52-29.19,149.73-106.11,220.78-36.24c7.63,8.22-21.73,30.53-32.3,39.93
				c-10.57,9.39-22.9,28.78-22.9,28.78s93.38-54.33,138-41.41c1.55,31.61,0.02,92.63,4.48,104.28
				c13.05,34.07,131.3,8.45,182.04-58.91c13.38-37.9,20.73-78.64,20.73-121.11c0-200.89-162.86-363.75-363.75-363.75
				S60.41,224.32,60.41,425.21"/>
		</defs>
		<clipPath id="SVGID_2_">
			<use xlink:href="#SVGID_1_"  style="overflow:visible;"/>
		</clipPath>
		
			<linearGradient id="SVGID_3_" gradientUnits="userSpaceOnUse" x1="152.9489" y1="614.917" x2="156.7119" y2="614.917" gradientTransform="matrix(0 -127.2651 -127.2651 0 78681.625 20104.3496)">
			<stop  offset="0" style="stop-color:#F15925"/>
			<stop  offset="1" style="stop-color:#FCBC13"/>
		</linearGradient>
		<rect x="60.41" y="61.46" class="st2" width="727.5" height="577.84"/>
	</g>
	<path class="st1" d="M627.52,432.23c0,111.74-90.58,202.32-202.32,202.32c-111.73,0-202.32-90.58-202.32-202.32
		c0-111.73,90.58-202.32,202.32-202.32C536.94,229.91,627.52,320.5,627.52,432.23"/>
	<path class="st3" d="M598.19,432.23c0,95.54-77.45,173-173,173c-95.54,0-172.99-77.45-172.99-173s77.45-172.99,172.99-172.99
		C520.74,259.24,598.19,336.69,598.19,432.23"/>
	<path class="st4" d="M233.82,570.92c9.7-7.21,20.84-16.24,20.9-16.33c-61.33,12.85-148.53-2.39-175.27-13.28
		c15.13,44.96,38.8,85.98,69.1,121.15C172.84,609.98,221.62,581.59,233.82,570.92"/>
	<path class="st5" d="M148.55,662.46c13.49,15.65,34.55,35.42,50.48,48.58c20.96-28.09,43.67-81.27,55.68-156.44
		C230.7,569.48,174.97,605.23,148.55,662.46"/>
	<g>
		<defs>
			<path id="SVGID_4_" d="M489.52,413.84c-3.07,0-5.92,1.59-7.54,4.2l-57.92,93.61c-3.5,5.66-11.77,5.59-15.16-0.13l-55.49-93.3
				c-1.61-2.71-4.53-4.37-7.68-4.34c-10.28,0.09-33.99,0.27-50.63,0.09c-4.56-0.05-8.4,3.33-8.91,7.86
				c-3.22,29.09-10.26,78.19-12.09,90.81c-0.28,1.97,0.08,3.99,1.07,5.71c29.86,51.9,85.85,86.87,150.03,86.87
				c64.96,0,121.56-35.81,151.13-88.77c0.75-1.34,1.13-2.85,1.13-4.38v-89.37c0-4.9-3.97-8.87-8.87-8.87H489.52z"/>
		</defs>
		<clipPath id="SVGID_5_">
			<use xlink:href="#SVGID_4_"  style="overflow:visible;"/>
		</clipPath>
		
			<linearGradient id="SVGID_6_" gradientUnits="userSpaceOnUse" x1="152.8544" y1="614.9012" x2="156.6174" y2="614.9012" gradientTransform="matrix(0 -176.3582 -176.3582 0 108868.5312 27721.6543)">
			<stop  offset="0" style="stop-color:#F15925"/>
			<stop  offset="1" style="stop-color:#FCBC13"/>
		</linearGradient>
		<rect x="273.81" y="413.84" class="st6" width="303.64" height="191.39"/>
	</g>
	<path class="st7" d="M419.43,452.99c-17.69,0-32.09-14.4-32.09-32.09c0-17.69,14.4-32.09,32.09-32.09
		c17.69,0,32.09,14.4,32.09,32.09C451.52,438.59,437.12,452.99,419.43,452.99 M419.43,392.57c-15.62,0-28.33,12.71-28.33,28.33
		c0,15.62,12.71,28.33,28.33,28.33c15.62,0,28.33-12.71,28.33-28.33C447.76,405.28,435.05,392.57,419.43,392.57"/>
	<path class="st8" d="M438.37,420.9c0,10.45-8.48,18.93-18.94,18.93c-10.46,0-18.93-8.48-18.93-18.93
		c0-10.46,8.47-18.94,18.93-18.94C429.89,401.97,438.37,410.44,438.37,420.9"/>
	<rect x="417.55" y="361.24" class="st7" width="5.06" height="120.17"/>
	<rect x="374.75" y="419.44" class="st7" width="89.36" height="3.76"/>
	<path class="st8" d="M528.77,591.9c2.56-84.55,28.52-161.29,28.52-161.3h-65.55l-75.26,123.93L343.04,430.6
		c4.85,130.19,88.01,204.05,88.01,204.05l65.55-103.28v87.73c0,0-1.45,66.94,20.13,95.44c13.05,17.23,34.14,31.71,73.54,24.03
		c13.17-3.08,25.6-7.51,37.23-12.91C566.76,719.79,526.21,676.44,528.77,591.9"/>
	<path class="st4" d="M731.94,616.87c-169.53,73.45-174.54-13.05-174.64-20.89V430.6c0,0.01-25.96,76.75-28.52,161.3
		c-2.56,84.54,37.98,127.9,98.72,133.77C683.74,699.56,721.22,650.31,731.94,616.87"/>
	<path class="st10" d="M731.94,616.87c-169.53,73.45-174.54-13.05-174.64-20.89V430.6c0,0.01-25.96,76.75-28.52,161.3
		c-2.56,84.54,37.98,127.9,98.72,133.77C683.74,699.56,721.22,650.31,731.94,616.87"/>
	<path class="st4" d="M320.61,481.09c3.33-26.02,6.42-40.18,8.91-47.85c-0.05-1.71-0.05-2.63-0.05-2.63h-27.31
		c-7.68,159.95-58.82,274.25-72.89,302.97c22.36,14.05,46.34,25.74,71.61,34.71c6.83-14.58,27.5-66.33,31.06-165.45
		C319.84,566.18,314.84,526.18,320.61,481.09"/>
	<path class="st4" d="M331.93,602.83c-0.02-0.66-0.02-1.32-0.03-1.98c4.05,13.56,45.84,110.49,156.59,102.8
		C339.8,649.23,330.14,457.87,329.51,433.24c-2.48,7.68-5.57,21.83-8.91,47.85C314.84,526.18,319.84,566.19,331.93,602.83"/>
	<g>
		<defs>
			<path id="SVGID_10_" d="M325.77,776.14c30.98,8.55,63.61,13.15,97.31,13.15c48.57,0,94.91-9.52,137.3-26.75
				c-19.99-2.52-36.64-11.5-61.72-32.93c-101.92,9.45-149.9-58.41-149.9-58.41S346.77,725.52,325.77,776.14"/>
		</defs>
		<clipPath id="SVGID_8_">
			<use xlink:href="#SVGID_10_"  style="overflow:visible;"/>
		</clipPath>
		
			<linearGradient id="SVGID_9_" gradientUnits="userSpaceOnUse" x1="152.8624" y1="614.8303" x2="156.6254" y2="614.8303" gradientTransform="matrix(0 -182.8948 -182.8948 0 112892.3438 28734.7402)">
			<stop  offset="0" style="stop-color:#F15925"/>
			<stop  offset="1" style="stop-color:#FCBC13"/>
		</linearGradient>
		<rect x="325.77" y="671.2" class="st9" width="234.62" height="118.09"/>
	</g>
	<g>
		<defs>
			<path id="SVGID_13_" d="M325.77,776.14c30.98,8.55,63.61,13.15,97.31,13.15c48.57,0,94.91-9.52,137.3-26.75
				c-19.99-2.52-36.64-11.5-61.72-32.93c-101.92,9.45-149.9-58.41-149.9-58.41S346.77,725.52,325.77,776.14"/>
		</defs>
		<clipPath id="SVGID_11_">
			<use xlink:href="#SVGID_13_"  style="overflow:visible;"/>
		</clipPath>
		
			<linearGradient id="SVGID_12_" gradientUnits="userSpaceOnUse" x1="152.8624" y1="614.8303" x2="156.6254" y2="614.8303" gradientTransform="matrix(0 -182.8948 -182.8948 0 112892.3438 28734.7402)">
			<stop  offset="0" style="stop-color:#F15925"/>
			<stop  offset="1" style="stop-color:#FCBC13"/>
		</linearGradient>
		<rect x="325.77" y="671.2" class="st11" width="234.62" height="118.09"/>
	</g>
</g>
</svg>
